<?xml version="1.0" encoding="UTF-8" standalone="no"?>
<!DOCTYPE svg PUBLIC "-//W3C//DTD SVG 1.1//EN" "http://www.w3.org/Graphics/SVG/1.1/DTD/svg11.dtd">
<svg width="100%" height="100%" viewBox="0 0 32 32" version="1.1" xmlns="http://www.w3.org/2000/svg" xmlns:xlink="http://www.w3.org/1999/xlink" xml:space="preserve" xmlns:serif="http://www.serif.com/" style="fill-rule:evenodd;clip-rule:evenodd;stroke-linecap:round;stroke-linejoin:round;stroke-miterlimit:1.5;">
    <g transform="matrix(0.0560207,0,0,0.0631453,-114.982,13.2675)">
        <g id="_2-BG" serif:id="2 BG" transform="matrix(1.34298,0,0,1.30455,-824.849,-11.5225)">
            <path d="M2548.87,29.035C2548.87,18.291 2539.32,9.568 2527.56,9.568L2397.65,9.568C2385.88,9.568 2376.33,18.291 2376.33,29.035L2376.33,203.052C2376.33,213.796 2385.88,222.519 2397.65,222.519L2527.56,222.519C2539.32,222.519 2548.87,213.796 2548.87,203.052L2548.87,29.035Z" style="fill:rgb(241,100,20);"/>
        </g>
        <path id="_2-Bottom" serif:id="2 Bottom" d="M2546.85,65.94C2546.85,65.94 2441.15,165.535 2419.06,186.655C2417.22,188.416 2415.63,190.552 2414.34,192.662C2413.07,194.738 2412.02,197.097 2411.32,199.312C2410.65,201.456 2410.24,203.707 2410.16,205.953C2409.93,211.988 2409.94,235.522 2409.94,235.522C2409.94,235.522 2511.27,235.971 2532.75,235.778C2534.83,235.76 2537.07,235.016 2538.82,234.368C2540.4,233.782 2541.84,232.854 2543.22,231.89C2544.61,230.918 2545.95,229.761 2547.17,228.536C2548.46,227.238 2549.87,225.708 2550.96,224.102C2552.1,222.434 2553.25,220.504 2554.01,218.526C2554.87,216.277 2555.84,213.326 2556.12,210.61C2556.53,206.827 2556.42,195.826 2556.42,195.826L2461.39,195.612C2461.39,195.612 2525.41,135.447 2539.14,122.389C2540.8,120.807 2542.4,118.967 2543.73,117.263C2544.99,115.655 2546.19,113.891 2547.12,112.164C2548.02,110.491 2548.79,108.555 2549.32,106.902C2549.81,105.391 2550.12,103.423 2550.32,102.244C2550.45,101.448 2550.51,100.638 2550.52,99.83C2550.58,95.501 2550.73,80.904 2550.65,76.267C2550.63,74.834 2550.42,73.336 2550.09,72.004C2549.76,70.712 2549.18,69.287 2548.65,68.276C2548.18,67.41 2546.85,65.94 2546.85,65.94Z" style="fill:rgb(51,62,72);stroke:black;stroke-opacity:0;stroke-width:16.75px;"/>
        <path id="_2-Top" serif:id="2 Top" d="M2414.82,106.24L2454.24,106.026L2454.24,84.127L2500.02,84.074L2534.95,50.851C2534.95,50.851 2533.16,48.623 2532.06,47.729C2530.93,46.812 2529.6,45.889 2528.18,45.349C2526.68,44.78 2524.81,44.336 2523.07,44.31C2509.41,44.112 2460.56,43.75 2446.25,44.16C2443.11,44.25 2439.9,45.579 2437.19,46.768C2434.59,47.908 2432.08,49.633 2429.99,51.296C2428,52.879 2426.21,54.731 2424.66,56.746C2422.99,58.931 2421.27,61.721 2419.93,64.404C2418.55,67.152 2417.21,70.46 2416.4,73.237C2415.65,75.778 2415.17,78.42 2415.04,81.065C2414.78,86.566 2414.82,106.24 2414.82,106.24Z" style="fill:rgb(51,62,72);stroke:black;stroke-opacity:0;stroke-width:16.75px;"/>
    </g>
    <g id="H" transform="matrix(0.0936635,0,0,0.103513,-189.32,-3.24007)">
        <path d="M2037.6,42.582L2037.6,237.519L2104.36,237.519C2104.36,237.519 2103.96,176.256 2104.28,163.554C2104.3,162.559 2105.24,161.348 2106.24,161.302C2115.11,160.891 2148.57,160.718 2157.5,161.083C2158.61,161.129 2159.78,162.385 2159.81,163.498C2160.18,176.269 2159.72,237.712 2159.72,237.712L2226.49,237.712L2226.49,42.755L2159.97,42.755C2159.97,42.755 2160.17,103.909 2159.77,116.646C2159.74,117.767 2158.68,119.127 2157.56,119.18C2148.69,119.598 2115.47,119.601 2106.57,119.155C2105.38,119.095 2104.2,117.694 2104.17,116.503C2103.81,103.728 2104.38,42.504 2104.38,42.504L2037.6,42.582Z" style="fill:rgb(51,62,72);"/>
        <path d="M2114.86,170.738C2124.7,170.558 2139.49,170.487 2149.24,170.581C2149.4,190.807 2149.05,237.648 2149.05,237.648C2149.03,240.221 2150.15,242.695 2152.15,244.52C2154.16,246.346 2156.88,247.373 2159.72,247.373L2226.49,247.373C2232.39,247.373 2237.17,243.048 2237.17,237.712L2237.17,42.755C2237.17,37.419 2232.39,33.094 2226.49,33.094L2159.97,33.094C2157.14,33.094 2154.42,34.116 2152.41,35.934C2150.41,37.752 2149.29,40.216 2149.3,42.783C2149.3,42.783 2149.45,89.667 2149.22,109.729C2139.41,109.877 2124.5,109.874 2114.75,109.716C2114.61,89.689 2115.06,42.587 2115.06,42.587C2115.09,40.008 2113.97,37.528 2111.96,35.698C2109.95,33.868 2107.22,32.84 2104.37,32.844L2037.58,32.922C2031.69,32.929 2026.92,37.252 2026.92,42.582L2026.92,237.519C2026.92,242.854 2031.7,247.179 2037.6,247.179L2104.36,247.179C2107.2,247.179 2109.93,246.154 2111.93,244.33C2113.93,242.506 2115.05,240.034 2115.03,237.462C2115.03,237.462 2114.73,190.987 2114.86,170.738ZM2037.6,42.582L2037.6,237.519L2104.36,237.519C2104.36,237.519 2103.96,176.256 2104.28,163.554C2104.3,162.559 2105.24,161.348 2106.24,161.302C2115.11,160.891 2148.57,160.718 2157.5,161.083C2158.61,161.129 2159.78,162.385 2159.81,163.498C2160.18,176.269 2159.72,237.712 2159.72,237.712L2226.49,237.712L2226.49,42.755L2159.97,42.755C2159.97,42.755 2160.17,103.909 2159.77,116.646C2159.74,117.767 2158.68,119.127 2157.56,119.18C2148.69,119.598 2115.47,119.601 2106.57,119.155C2105.38,119.095 2104.2,117.694 2104.17,116.503C2103.81,103.728 2104.38,42.504 2104.38,42.504L2037.6,42.582Z" style="fill-opacity:0;"/>
    </g>
</svg>
