<?xml version="1.0" encoding="UTF-8" standalone="no"?>
<!DOCTYPE svg PUBLIC "-//W3C//DTD SVG 1.1//EN" "http://www.w3.org/Graphics/SVG/1.1/DTD/svg11.dtd">
<svg width="100%" height="100%" viewBox="0 0 40 40" version="1.1" xmlns="http://www.w3.org/2000/svg" xmlns:xlink="http://www.w3.org/1999/xlink" xml:space="preserve" xmlns:serif="http://www.serif.com/" style="fill-rule:evenodd;clip-rule:evenodd;stroke-linejoin:round;stroke-miterlimit:2;">
    <g transform="matrix(3.14171,0,0,3.14171,-28.7385,-45.1353)">
        <g transform="matrix(-0.492486,0.87032,-0.87032,-0.492486,41.9877,18.6902)">
            <path d="M10.813,21.401C10.767,21.187 10.789,20.849 10.815,20.599C10.842,20.338 10.898,20.078 10.994,19.834C11.093,19.582 11.25,19.318 11.407,19.089C11.561,18.864 12.024,18.481 12.024,18.481L12.676,19.664C12.676,19.664 12.508,19.835 12.438,19.932C12.365,20.034 12.288,20.154 12.236,20.276C12.18,20.408 12.129,20.576 12.103,20.72C12.079,20.858 12.091,20.981 12.084,21.139C13.403,21.214 14.45,22.309 14.45,23.647C14.45,25.033 13.325,26.159 11.939,26.159C10.552,26.159 9.427,25.033 9.427,23.647C9.427,22.665 9.991,21.814 10.813,21.401Z" style="fill:white;"/>
        </g>
        <g transform="matrix(-0.512916,-0.858439,0.858439,-0.512916,4.91063,45.9827)">
            <path d="M10.813,21.401C10.767,21.187 10.789,20.849 10.815,20.599C10.842,20.338 10.898,20.078 10.994,19.834C11.093,19.582 11.25,19.318 11.407,19.089C11.561,18.864 12.024,18.481 12.024,18.481L12.676,19.664C12.676,19.664 12.508,19.835 12.438,19.932C12.365,20.034 12.288,20.154 12.236,20.276C12.18,20.408 12.129,20.576 12.103,20.72C12.079,20.858 12.091,20.981 12.084,21.139C13.403,21.214 14.45,22.309 14.45,23.647C14.45,25.033 13.325,26.159 11.939,26.159C10.552,26.159 9.427,25.033 9.427,23.647C9.427,22.665 9.991,21.814 10.813,21.401Z" style="fill:white;"/>
        </g>
        <path d="M10.813,21.401C10.767,21.187 10.789,20.849 10.815,20.599C10.842,20.338 10.898,20.078 10.994,19.834C11.093,19.582 11.25,19.318 11.407,19.089C11.561,18.864 12.024,18.481 12.024,18.481L12.676,19.664C12.676,19.664 12.508,19.835 12.438,19.932C12.365,20.034 12.288,20.154 12.236,20.276C12.18,20.408 12.129,20.576 12.103,20.72C12.079,20.858 12.091,20.981 12.084,21.139C13.403,21.214 14.45,22.309 14.45,23.647C14.45,25.033 13.325,26.159 11.939,26.159C10.552,26.159 9.427,25.033 9.427,23.647C9.427,22.665 9.991,21.814 10.813,21.401Z" style="fill:white;"/>
    </g>
</svg>
