<?xml version="1.0" encoding="UTF-8" standalone="no"?>
<!DOCTYPE svg PUBLIC "-//W3C//DTD SVG 1.1//EN" "http://www.w3.org/Graphics/SVG/1.1/DTD/svg11.dtd">
<svg width="100%" height="100%" viewBox="0 0 20 10" version="1.1" xmlns="http://www.w3.org/2000/svg" xmlns:xlink="http://www.w3.org/1999/xlink" xml:space="preserve" xmlns:serif="http://www.serif.com/" style="fill-rule:evenodd;clip-rule:evenodd;stroke-linejoin:round;stroke-miterlimit:2;">
    <g transform="matrix(5.18981,0,0,6.04945,-36.2784,-96.4499)">
        <path d="M8.923,16.085C9.039,16.085 9.173,16.142 9.268,16.185C9.35,16.223 9.425,16.289 9.49,16.342C9.551,16.39 9.662,16.5 9.662,16.5L10.844,17.595L6.99,17.595L8.174,16.499C8.174,16.499 8.285,16.389 8.345,16.341C8.412,16.288 8.488,16.22 8.572,16.183C8.668,16.14 8.807,16.085 8.923,16.085Z" style="fill:white;"/>
        <path d="M8.923,16.085C9.039,16.085 9.173,16.142 9.268,16.185C9.35,16.223 9.425,16.289 9.49,16.342C9.551,16.39 9.662,16.5 9.662,16.5L10.844,17.595L6.99,17.595L8.174,16.499C8.174,16.499 8.285,16.389 8.345,16.341C8.412,16.288 8.488,16.22 8.572,16.183C8.668,16.14 8.807,16.085 8.923,16.085ZM8.923,16.133C9.031,16.133 9.154,16.188 9.242,16.227C9.32,16.263 9.39,16.327 9.452,16.377C9.512,16.424 9.619,16.532 9.619,16.532L10.717,17.547C10.717,17.547 7.118,17.547 7.118,17.547L8.217,16.53C8.217,16.53 8.324,16.423 8.383,16.376C8.446,16.326 8.518,16.261 8.598,16.226C8.687,16.186 8.815,16.132 8.923,16.133Z" style="fill:white;"/>
    </g>
</svg>
