<?xml version="1.0" encoding="UTF-8" standalone="no"?>
<!DOCTYPE svg PUBLIC "-//W3C//DTD SVG 1.1//EN" "http://www.w3.org/Graphics/SVG/1.1/DTD/svg11.dtd">
<svg width="100%" height="100%" viewBox="0 0 140 48" version="1.1" xmlns="http://www.w3.org/2000/svg" xmlns:xlink="http://www.w3.org/1999/xlink" xml:space="preserve" xmlns:serif="http://www.serif.com/" style="fill-rule:evenodd;clip-rule:evenodd;stroke-linecap:round;stroke-linejoin:round;stroke-miterlimit:1.5;">
    <g transform="matrix(0.122683,0,0,0.122683,-179.152,7.00378)">
        <g id="_2-BG" serif:id="2 BG" transform="matrix(1.34298,0,0,1.30455,-824.849,-11.5225)">
            <path d="M2548.87,31.511C2548.87,19.4 2539.32,9.568 2527.56,9.568L2397.65,9.568C2385.88,9.568 2376.33,19.4 2376.33,31.511L2376.33,200.576C2376.33,212.687 2385.88,222.519 2397.65,222.519L2527.56,222.519C2539.32,222.519 2548.87,212.687 2548.87,200.576L2548.87,31.511Z" style="fill:rgb(241,100,20);"/>
        </g>
        <path id="_2-Bottom" serif:id="2 Bottom" d="M2546.85,65.94C2546.85,65.94 2441.15,165.535 2419.06,186.655C2417.22,188.416 2415.63,190.552 2414.34,192.662C2413.07,194.738 2412.02,197.097 2411.32,199.312C2410.65,201.456 2410.24,203.707 2410.16,205.953C2409.93,211.988 2409.94,235.522 2409.94,235.522C2409.94,235.522 2511.27,235.971 2532.75,235.778C2534.83,235.76 2537.07,235.016 2538.82,234.368C2540.4,233.782 2541.84,232.854 2543.22,231.89C2544.61,230.918 2545.95,229.761 2547.17,228.536C2548.46,227.238 2549.87,225.708 2550.96,224.102C2552.1,222.434 2553.25,220.504 2554.01,218.526C2554.87,216.277 2555.84,213.326 2556.12,210.61C2556.53,206.827 2556.42,195.826 2556.42,195.826L2461.39,195.612C2461.39,195.612 2525.41,135.447 2539.14,122.389C2540.8,120.807 2542.4,118.967 2543.73,117.263C2544.99,115.655 2546.19,113.891 2547.12,112.164C2548.02,110.491 2548.79,108.555 2549.32,106.902C2549.81,105.391 2550.12,103.423 2550.32,102.244C2550.45,101.448 2550.51,100.638 2550.52,99.83C2550.58,95.501 2550.73,80.904 2550.65,76.267C2550.63,74.834 2550.42,73.336 2550.09,72.004C2549.76,70.712 2549.18,69.287 2548.65,68.276C2548.18,67.41 2546.85,65.94 2546.85,65.94Z" style="fill:rgb(51,62,72);stroke:black;stroke-opacity:0;stroke-width:8.15px;"/>
        <path id="_2-Top" serif:id="2 Top" d="M2414.82,106.24L2454.24,106.026L2454.24,84.127L2500.02,84.074L2534.95,50.851C2534.95,50.851 2533.16,48.623 2532.06,47.729C2530.93,46.812 2529.6,45.889 2528.18,45.349C2526.68,44.78 2524.81,44.336 2523.07,44.31C2509.41,44.112 2460.56,43.75 2446.25,44.16C2443.11,44.25 2439.9,45.579 2437.19,46.768C2434.59,47.908 2432.08,49.633 2429.99,51.296C2428,52.879 2426.21,54.731 2424.66,56.746C2422.99,58.931 2421.27,61.721 2419.93,64.404C2418.55,67.152 2417.21,70.46 2416.4,73.237C2415.65,75.778 2415.17,78.42 2415.04,81.065C2414.78,86.566 2414.82,106.24 2414.82,106.24Z" style="fill:rgb(51,62,72);stroke:black;stroke-opacity:0;stroke-width:8.15px;"/>
    </g>
    <g id="O" transform="matrix(0.122683,0,0,0.122683,33.4779,6.65382)">
        <path d="M68.251,169.197C68.251,169.197 68.364,113.051 68.729,100.891C68.779,99.24 69.437,97.416 70.443,96.24C71.448,95.064 73.113,93.872 74.76,93.835C92.658,93.434 159.779,93.517 177.831,93.835C179.689,93.867 181.874,94.657 183.07,95.742C184.267,96.827 184.97,98.68 185.008,100.344C185.331,114.339 185.262,165.744 185.008,179.713C184.98,181.279 184.388,183.06 183.484,184.159C182.58,185.258 181.067,186.272 179.583,186.306C164.133,186.664 90.784,186.306 90.784,186.306C90.784,186.306 43.032,222.902 33.282,230.622C32.696,231.086 32.322,232.055 32.28,232.625C32.241,233.159 32.653,233.666 33.031,234.044C33.532,234.545 34.408,235.357 35.285,235.63C36.759,236.089 39.646,236.783 41.878,236.798C70.601,236.993 177.953,237.099 207.625,236.798C211.765,236.756 215.964,236.232 219.914,234.992C224.186,233.65 229.241,231.57 233.262,228.749C237.68,225.65 243.382,220.432 246.418,216.397C249.002,212.963 251.405,207.045 251.479,204.541C251.907,190.111 251.712,130.41 251.627,115.985C251.615,113.971 251.403,112.988 251.115,111.828C250.87,110.841 249.9,109.028 249.9,109.028L217.736,46.378C217.736,46.378 215.49,44.454 214.146,43.9C212.765,43.33 211.044,42.969 209.446,42.96C181.486,42.803 75.087,42.702 46.386,42.96C43.294,42.987 40.204,43.629 37.239,44.509C33.593,45.59 28.446,47.271 24.506,49.449C20.567,51.628 16.638,54.794 13.602,57.58C10.832,60.123 8.023,63.643 6.292,66.171C4.924,68.168 3.889,70.679 3.215,72.748C2.604,74.625 2.252,77.226 2.248,78.588C2.21,93.419 1.993,182.41 2.254,202.443C2.278,204.294 3.373,206.081 3.96,207.728C4.513,209.279 5.099,211.004 5.776,212.321C6.385,213.507 7.396,215.028 8.019,215.633C8.385,215.988 9.111,216.265 9.515,215.953C19.553,208.214 68.251,169.197 68.251,169.197Z" style="fill:rgb(51,62,72);stroke:black;stroke-opacity:0;stroke-width:8.15px;"/>
    </g>
    <g id="H" transform="matrix(0.122683,0,0,0.122683,-249.308,6.65382)">
        <path d="M2037.6,42.582L2037.6,237.519L2104.36,237.519C2104.36,237.519 2103.96,176.256 2104.28,163.554C2104.3,162.559 2105.24,161.324 2106.24,161.302C2125.23,160.891 2199.2,160.718 2218.25,161.083C2219.36,161.105 2220.52,162.385 2220.56,163.498C2220.93,176.269 2220.47,237.712 2220.47,237.712L2287.24,237.712L2287.24,42.755L2220.72,42.755C2220.72,42.755 2220.92,103.909 2220.52,116.646C2220.49,117.767 2219.43,119.156 2218.31,119.18C2199.32,119.598 2125.59,119.601 2106.57,119.155C2105.38,119.127 2104.2,117.694 2104.17,116.503C2103.81,103.728 2104.38,42.504 2104.38,42.504L2037.6,42.582Z" style="fill:rgb(51,62,72);"/>
        <path d="M2112.35,169.355C2135.25,169.045 2189.88,168.921 2212.5,169.157C2212.69,188.533 2212.32,237.652 2212.32,237.652C2212.31,239.824 2213.16,241.913 2214.69,243.454C2216.22,244.996 2218.3,245.863 2220.47,245.863L2287.24,245.863C2291.74,245.863 2295.39,242.214 2295.39,237.712L2295.39,42.755C2295.39,38.253 2291.74,34.604 2287.24,34.604L2220.72,34.604C2218.56,34.604 2216.48,35.466 2214.95,37C2213.42,38.535 2212.57,40.615 2212.57,42.781C2212.57,42.781 2212.74,91.917 2212.48,111.122C2189.73,111.418 2134.82,111.417 2112.24,111.101C2112.07,91.943 2112.53,42.581 2112.53,42.581C2112.56,40.405 2111.7,38.31 2110.17,36.765C2108.64,35.219 2106.55,34.351 2104.38,34.353L2037.59,34.431C2033.09,34.436 2029.45,38.084 2029.45,42.582L2029.45,237.519C2029.45,242.02 2033.1,245.67 2037.6,245.67L2104.36,245.67C2106.53,245.67 2108.61,244.804 2110.14,243.264C2111.67,241.724 2112.52,239.637 2112.51,237.466C2112.51,237.466 2112.19,188.791 2112.35,169.355ZM2037.6,42.582L2037.6,237.519L2104.36,237.519C2104.36,237.519 2103.96,176.256 2104.28,163.554C2104.3,162.559 2105.24,161.324 2106.24,161.302C2125.23,160.891 2199.2,160.718 2218.25,161.083C2219.36,161.105 2220.52,162.385 2220.56,163.498C2220.93,176.269 2220.47,237.712 2220.47,237.712L2287.24,237.712L2287.24,42.755L2220.72,42.755C2220.72,42.755 2220.92,103.909 2220.52,116.646C2220.49,117.767 2219.43,119.156 2218.31,119.18C2199.32,119.598 2125.59,119.601 2106.57,119.155C2105.38,119.127 2104.2,117.694 2104.17,116.503C2103.81,103.728 2104.38,42.504 2104.38,42.504L2037.6,42.582Z" style="fill-opacity:0;"/>
    </g>
    <g id="W" transform="matrix(0.122683,0,0,0.122683,-58.5628,6.65382)">
        <path d="M1061.98,42.976C1049.93,42.924 1003.38,42.794 991.436,42.997C990.889,43.006 990.402,43.667 990.311,44.192C990.22,44.717 990.581,45.542 990.889,46.147C1006.98,77.751 1070.55,203.498 1087.02,235.388C1087.55,236.405 1088.6,237.429 1089.74,237.486C1096.52,237.826 1120.84,237.948 1127.69,237.428C1129.15,237.317 1130.16,235.661 1130.84,234.365C1139,218.824 1168.81,159.511 1176.64,144.18C1176.97,143.539 1177.35,142.671 1177.83,142.377C1178.3,142.085 1179.07,142.055 1179.49,142.416C1180.02,142.865 1180.53,144.17 1180.99,145.075C1188.86,160.408 1218.43,219.022 1226.69,234.411C1227.46,235.848 1228.93,237.283 1230.56,237.411C1237.22,237.935 1260.09,237.953 1266.69,237.554C1268.12,237.468 1269.49,236.288 1270.15,235.022C1286.8,203.184 1350.36,78.327 1366.62,46.524C1367,45.764 1367.58,44.795 1367.68,44.199C1367.76,43.761 1367.56,43.205 1367.22,42.95C1366.88,42.694 1366.19,42.67 1365.66,42.668C1353.65,42.602 1307.28,42.358 1295.18,42.558C1294.37,42.572 1293.49,43.145 1293.11,43.871C1285.83,57.745 1258.73,111.718 1251.52,125.8C1251.06,126.708 1250.48,127.943 1249.85,128.365C1249.28,128.751 1248.36,128.706 1247.79,128.33C1247.16,127.921 1246.55,126.788 1246.11,125.914C1239.01,112.01 1212.21,58.666 1205.2,44.904C1204.9,44.322 1204.51,43.717 1204.01,43.345C1203.5,42.974 1202.81,42.685 1202.16,42.677C1194.04,42.569 1163.54,42.401 1155.28,42.698C1154.2,42.736 1153.07,43.502 1152.56,44.455C1145.36,58.104 1119.18,110.615 1112.06,124.589C1111.4,125.875 1110.58,127.701 1109.83,128.3C1109.24,128.774 1108.11,128.701 1107.56,128.186C1106.74,127.435 1105.72,125.309 1104.95,123.793C1097.81,109.891 1071.62,58.184 1064.76,44.77C1064.49,44.242 1064.2,43.608 1063.74,43.309C1063.28,43.01 1062.58,42.979 1061.98,42.976Z" style="fill:rgb(51,62,72);stroke:black;stroke-opacity:0;stroke-width:8.15px;"/>
    </g>
</svg>
