<?xml version="1.0" encoding="UTF-8" standalone="no"?>
<!DOCTYPE svg PUBLIC "-//W3C//DTD SVG 1.1//EN" "http://www.w3.org/Graphics/SVG/1.1/DTD/svg11.dtd">
<svg width="100%" height="100%" viewBox="0 0 48 48" version="1.1" xmlns="http://www.w3.org/2000/svg" xmlns:xlink="http://www.w3.org/1999/xlink" xml:space="preserve" xmlns:serif="http://www.serif.com/" style="fill-rule:evenodd;clip-rule:evenodd;stroke-linejoin:round;stroke-miterlimit:2;">
    <g transform="matrix(1.19167,0,0,1.19167,-4.61258,-4.61426)">
        <path d="M13.9,13.901C19.441,8.361 28.559,8.361 34.1,13.901L38.143,9.859C34.394,6.109 29.303,4 24,4C18.697,4 13.606,6.109 9.857,9.859L13.9,13.901Z" style="fill:rgb(237,101,22);"/>
    </g>
    <g transform="matrix(1.19167,0,0,1.19167,-4.61258,-4.61426)">
        <path d="M39.312,11.135L35.249,15.197C38.886,19.848 39.283,26.294 36.244,31.356L28.891,24L24.885,14.587L24.865,14.587L24.865,27.31L32.803,35.248C27.648,39.279 20.352,39.279 15.197,35.248L23.136,27.31L23.136,14.636L19.109,24.001L11.754,31.356C8.716,26.294 9.113,19.847 12.751,15.197L8.688,11.135C5.66,14.738 3.999,19.297 3.999,24.003C3.999,34.975 13.028,44.004 24,44.004C34.972,44.004 44.001,34.975 44.001,24.003C44.001,19.297 42.34,14.738 39.312,11.135" style="fill:rgb(51,62,72);"/>
    </g>
</svg>
