<svg width="1920" height="35" viewBox="0 0 1920 35" fill="none" xmlns="http://www.w3.org/2000/svg">
<g clip-path="url(#clip0_8356_89435)">
<path fill-rule="evenodd" clip-rule="evenodd" d="M1672.89 -0.380859H1672.89L1921 -0.380849V4.76837e-07V7.61915V24.3488H1920V1266.62V1279H1670.48C1668.18 1279 1665.88 1278.65 1663.68 1277.97L1648.4 1273.24H1589.44L1614.46 1283.39L1614.47 1283.4C1618.06 1284.89 1622.46 1285.71 1627.04 1285.72H1920V1289.72V1290.62H1726.18C1724.24 1290.62 1722.32 1290.31 1720.47 1289.72H1627.04C1622.01 1289.71 1617.08 1288.81 1612.94 1287.09L1583.2 1275.02H1583.19C1581.3 1274.23 1579.18 1273.63 1576.93 1273.24H343.07C340.822 1273.63 338.706 1274.23 336.817 1275.02H336.81H336.802L307.067 1287.09H307.062C302.925 1288.81 297.989 1289.71 292.968 1289.72H292.967H199.532C197.688 1290.31 195.761 1290.62 193.821 1290.62H0.00414623V1289.72H0.000479824L0.000480728 1285.72H292.966H292.967C297.541 1285.71 301.947 1284.89 305.533 1283.4L305.541 1283.39H305.548L330.564 1273.24H271.606L256.322 1277.97C254.12 1278.65 251.828 1279 249.523 1279H0V1273.24V1266.62V19.2764V4.76837e-07H1V-0.380849L249.105 -0.380859H249.107C253.655 -0.378262 258.175 0.505779 262.022 2.23425L262.039 2.24167L287.201 13.307L287.217 13.314L287.233 13.3211C289.924 14.5322 293.31 15.2364 296.884 15.2387L296.885 15.2387L939.5 15.2387L1625.12 15.2386H1625.12C1628.69 15.2363 1632.08 14.532 1634.77 13.3213L1634.78 13.3141L1634.8 13.3071L1659.96 2.24186L1659.98 2.23356C1663.82 0.505388 1668.35 -0.378263 1672.89 -0.380859ZM315.346 1277.73L301.64 1283.4C301.626 1283.41 301.611 1283.41 301.597 1283.41C301.591 1283.42 301.585 1283.42 301.579 1283.42C301.573 1283.42 301.566 1283.42 301.56 1283.42C301.541 1283.43 301.522 1283.43 301.503 1283.44C301.494 1283.44 301.485 1283.44 301.477 1283.44C301.466 1283.44 301.456 1283.44 301.446 1283.44C301.426 1283.45 301.406 1283.45 301.386 1283.45C300.679 1283.44 300.501 1282.47 301.158 1282.2L314.864 1276.54C314.905 1276.52 314.947 1276.51 314.991 1276.5C315.024 1276.49 315.058 1276.49 315.093 1276.49L315.118 1276.49C315.825 1276.49 316.003 1277.46 315.346 1277.73ZM1604.66 1277.73L1618.36 1283.4C1618.37 1283.41 1618.39 1283.41 1618.4 1283.41L1604.66 1277.73ZM1618.58 1283.45C1618.59 1283.45 1618.6 1283.45 1618.61 1283.45C1618.57 1283.45 1618.53 1283.44 1618.48 1283.44L1618.49 1283.44C1618.52 1283.44 1618.55 1283.45 1618.58 1283.45Z" fill="black"/>
</g>
<defs>
<clipPath id="clip0_8356_89435">
<rect width="1920" height="35" fill="white"/>
</clipPath>
</defs>
</svg>
